# xmcd
# 
# Track frame offsets:
#     150
#     15579
#     42304
#     62602
#     86597
#     104940
#     125357
#     144508
#     166921
#     192074
#     210414
#     247621
# 
# Disc length: 3518
# 
# Revision: 0
# Processed by: cddbd v1.5.2PL0 Copyright (c) Steve Scherf et al.
# Submitted via: fre:ac v1.0.31
# 
DISCID=990dbc0c
DTITLE=Zoe Schwarz - Livewire
DYEAR=2015
DGENRE=Blues
TTITLE0=THE BLUES DON'T SCARE ME
TTITLE1=GLORYBOX
TTITLE2=THERE'S ONLY YOU
TTITLE3=I PUT A SPELL ON YOU
TTITLE4=MOVE OVER
TTITLE5=I'M IN THE MOOD
TTITLE6=COME HOME SWEET BABY
TTITLE7=BLUES GET OFF MY SHOULDER
TTITLE8=YOU KNOCK ME OUT
TTITLE9=I WON'T CRY OVER YOU
TTITLE10=HEARTBREAK TEARS
TTITLE11=TOO MUCH OF A GOOD THING
EXTD=
EXTT0=
EXTT1=
EXTT2=
EXTT3=
EXTT4=
EXTT5=
EXTT6=
EXTT7=
EXTT8=
EXTT9=
EXTT10=
EXTT11=
PLAYORDER=
